# xmcd CD database file
#
# Track frame offsets:
#	150
#	14721
#	30420
#	48533
#	71021
#	89792
#	105557
#	118555
#	140592
#	153947
#
# Disc length: 2312 seconds
#
# Revision: 0
# Processed by: cddbd v1.5.2PL0 Copyright (c) Steve Scherf et al.
# Submitted via: CDex 1.70beta2
#
DISCID=8809060a
DTITLE=Kate Russell - Powerful Stuff
DYEAR=1900
DGENRE=Country
TTITLE0=Powerful Stuff
TTITLE1=Stranded
TTITLE2=What Is Love
TTITLE3=Better Days
TTITLE4=Open My Eyes
TTITLE5=Talk Is Cheap
TTITLE6=Bittersweet
TTITLE7=Vanish Into The Night
TTITLE8=Faster Than The Cat
TTITLE9=Outback Shuffle
EXTD=
EXTT0=
EXTT1=
EXTT2=
EXTT3=
EXTT4=
EXTT5=
EXTT6=
EXTT7=
EXTT8=
EXTT9=
PLAYORDER=
